# This file uses centimeters as units for non-parametric coordinates.

mtllib Box.mtl
g default
v -32.298789 0.055881 27.610830
v 32.298789 0.055881 27.610830
v -32.298789 37.688870 27.610830
v 32.298789 37.688870 27.610830
v -32.298789 37.688870 -27.610830
v 32.298789 37.688870 -27.610830
v -32.298789 0.055881 -27.610830
v 32.298789 0.055881 -27.610830
v -32.298789 30.162254 -27.610830
v 32.298789 30.162254 -27.610830
v 32.298789 30.162254 27.610830
v -32.298789 30.162254 27.610830
v -32.298789 7.582467 27.610830
v 32.298789 7.582467 27.610830
v 32.298789 7.582467 -27.610830
v -32.298789 7.582467 -27.610830
v 0.000000 0.055881 26.407223
v 0.000000 0.055881 -26.407223
v 0.000000 7.582467 -26.407223
v 0.000000 30.162254 -26.407223
v 0.000000 37.688870 -26.407223
v 0.000000 37.688870 26.407223
v 0.000000 30.162254 26.407223
v 0.000000 7.582467 26.407223
v -30.521216 37.688870 0.000000
v 30.521216 37.688870 0.000000
v 30.521216 30.162254 0.000000
v 30.521216 7.582467 0.000000
v 30.521216 0.055881 0.000000
v -30.521216 0.055881 0.000000
v -30.521216 7.582467 0.000000
v -30.521216 30.162254 0.000000
v 0.000000 29.681684 25.002181
v 0.000000 18.872376 24.684203
v 30.191325 18.872376 25.809250
v 30.580219 30.162254 26.141719
v 0.000000 18.872376 -24.684203
v 0.000000 30.162254 -25.002181
v 30.580219 30.162254 -26.141719
v 30.191325 18.872376 -25.809250
v 28.897250 30.162254 0.000000
v 28.529756 18.872376 0.000000
v -30.191325 18.872376 -25.809250
v -28.529756 18.872376 0.000000
v -28.897250 30.162254 0.000000
v -30.580219 30.162254 -26.141719
v 0.000000 7.582467 25.002181
v 30.580219 7.582467 26.141719
v 28.897250 7.582467 0.000000
v 30.580219 7.582467 -26.141719
v 0.000000 7.582467 -25.002181
v -30.580219 7.582467 -26.141719
v -28.897250 7.582467 0.000000
v -30.191325 18.872376 25.809250
v -30.580219 29.681684 26.141719
v -30.580219 7.582467 26.141719
v 0.000000 37.688870 -20.811179
v 24.053334 37.688870 0.000000
v 25.454222 37.688870 -21.759701
v -24.053334 37.688870 0.000000
v -25.454222 37.688870 -21.759701
v -25.454222 37.688870 21.759701
v 0.000000 37.688870 20.811179
v 25.454222 37.688870 21.759701
v 24.053334 0.055881 0.000000
v 0.000000 0.055881 -20.811179
v 25.454222 0.055881 -21.759701
v -25.454222 0.055881 -21.759701
v -24.053334 0.055881 0.000000
v 0.000000 0.055881 20.811179
v 25.454222 0.055881 21.759701
v -25.454222 0.055881 21.759701
v 0.000000 35.046239 -19.482697
v 0.000000 35.046239 -0.000000
v 22.517886 35.046239 0.000000
v 23.829357 35.046239 -20.370672
v -22.517886 35.046239 0.000000
v -23.829357 35.046239 -20.370672
v -23.829357 35.046239 20.370672
v 0.000000 35.046239 19.482697
v 23.829357 35.046239 20.370672
v 22.517886 2.698510 0.000000
v 0.000000 2.698510 -0.000000
v 0.000000 2.698510 -19.482697
v 23.829357 2.698510 -20.370672
v -23.829357 2.698510 -20.370672
v -22.517886 2.698510 0.000000
v 0.000000 2.698510 19.482697
v 23.829357 2.698510 20.370672
v -23.829357 2.698510 20.370672
vt 0.614676 0.160515
vt 0.614676 0.099443
vt 0.734228 0.099443
vt 0.734228 0.160515
vt 0.495124 0.099443
vt 0.495124 0.160515
vt 0.614676 0.038371
vt 0.734228 0.038371
vt 0.495124 0.038371
vt 0.016918 0.099443
vt 0.136470 0.099443
vt 0.136470 0.160515
vt 0.016918 0.160515
vt 0.016918 0.038371
vt 0.136470 0.038371
vt 0.256021 0.099443
vt 0.256021 0.160515
vt 0.256021 0.038371
vt 0.376880 0.281577
vt 0.376880 0.325688
vt 0.256160 0.325688
vt 0.256160 0.281577
vt 0.497600 0.325688
vt 0.497600 0.281577
vt 0.980480 0.325688
vt 0.859760 0.325688
vt 0.859760 0.281576
vt 0.980480 0.281576
vt 0.739040 0.325689
vt 0.739040 0.281577
vt 0.376880 0.196520
vt 0.376880 0.240631
vt 0.256160 0.240632
vt 0.256160 0.196520
vt 0.497600 0.240631
vt 0.497600 0.196519
vt 0.980479 0.240632
vt 0.859760 0.240631
vt 0.859760 0.196520
vt 0.980480 0.196520
vt 0.739040 0.240631
vt 0.739040 0.196520
vt 0.155027 0.733300
vt 0.249376 0.733300
vt 0.242660 0.741497
vt 0.155027 0.741497
vt 0.062136 0.733300
vt 0.070051 0.741497
vt 0.249376 0.931729
vt 0.155027 0.931729
vt 0.155027 0.923046
vt 0.242660 0.923046
vt 0.062136 0.931729
vt 0.070051 0.923046
vt 0.063677 0.413433
vt 0.157160 0.413433
vt 0.157160 0.421808
vt 0.071450 0.421808
vt 0.251127 0.413433
vt 0.243703 0.421808
vt 0.157160 0.612309
vt 0.063677 0.612309
vt 0.071450 0.603888
vt 0.157160 0.603888
vt 0.251127 0.612309
vt 0.243703 0.603888
vt 0.242660 0.832834
vt 0.155022 0.832834
vt 0.070051 0.832834
vt 0.157225 0.513499
vt 0.071450 0.513499
vt 0.243703 0.513499
vt 0.334488 0.955820
vt 0.334488 0.829528
vt 0.341398 0.829528
vt 0.341398 0.949101
vt 0.334488 0.703237
vt 0.341398 0.709957
vt 0.464353 0.955820
vt 0.464353 0.949101
vt 0.464353 0.703237
vt 0.464353 0.709957
vt 0.594218 0.955820
vt 0.587309 0.949101
vt 0.594218 0.703237
vt 0.587309 0.709957
vt 0.594218 0.829528
vt 0.587309 0.829528
vt 0.589103 0.512368
vt 0.589103 0.638660
vt 0.582193 0.631940
vt 0.582193 0.512368
vt 0.459238 0.638660
vt 0.459238 0.631940
vt 0.589103 0.386076
vt 0.582193 0.392796
vt 0.329373 0.638660
vt 0.336282 0.631940
vt 0.459238 0.386076
vt 0.459238 0.392796
vt 0.329373 0.512368
vt 0.336282 0.512368
vt 0.329373 0.386076
vt 0.336282 0.392796
vt 0.155022 0.706220
vt 0.284886 0.706220
vt 0.284886 0.832834
vt 0.249376 0.832834
vt 0.025159 0.706220
vt 0.284886 0.959503
vt 0.025159 0.832834
vt 0.062136 0.832834
vt 0.155022 0.959503
vt 0.025159 0.959503
vt 0.027017 0.513499
vt 0.027017 0.386857
vt 0.063677 0.513499
vt 0.157225 0.386857
vt 0.027017 0.640141
vt 0.286743 0.386857
vt 0.157225 0.640141
vt 0.286743 0.513499
vt 0.251127 0.513499
vt 0.286743 0.640141
vt 0.375573 0.160515
vt 0.375573 0.099443
vt 0.375573 0.038371
vt 0.853779 0.099443
vt 0.853779 0.160515
vt 0.973331 0.160515
vt 0.973331 0.099443
vt 0.853779 0.038371
vt 0.973331 0.038371
vt 0.135440 0.325688
vt 0.135439 0.281577
vt 0.014719 0.281577
vt 0.014719 0.325688
vt 0.618320 0.281577
vt 0.618320 0.325688
vt 0.618320 0.196519
vt 0.618320 0.240631
vt 0.135440 0.240631
vt 0.135440 0.196520
vt 0.014720 0.196519
vt 0.014720 0.240631
vn -0.036996 -0.028750 0.998902
vn -0.036996 -0.028750 0.998902
vn -0.036996 -0.028750 0.998902
vn -0.036996 -0.028750 0.998902
vn 0.000000 1.000000 -0.000000
vn 0.000000 1.000000 -0.000000
vn 0.000000 1.000000 -0.000000
vn 0.000000 1.000000 -0.000000
vn -0.037223 -0.028134 -0.998911
vn -0.037223 -0.028134 -0.998911
vn -0.037223 -0.028134 -0.998911
vn -0.037223 -0.028134 -0.998911
vn 0.000000 -1.000000 0.000000
vn 0.000000 -1.000000 0.000000
vn 0.000000 -1.000000 0.000000
vn 0.000000 -1.000000 0.000000
vn 0.997408 -0.032466 0.064212
vn 0.997408 -0.032466 0.064212
vn 0.997408 -0.032466 0.064212
vn 0.997408 -0.032466 0.064212
vn -0.997408 -0.032466 0.064212
vn -0.997408 -0.032466 0.064212
vn -0.997408 -0.032466 0.064212
vn -0.997408 -0.032466 0.064212
vn -0.037223 0.028134 0.998911
vn -0.037223 0.028134 0.998911
vn -0.037223 0.028134 0.998911
vn -0.037223 0.028134 0.998911
vn 0.997408 0.032466 0.064212
vn 0.997408 0.032466 0.064212
vn 0.997408 0.032466 0.064212
vn 0.997408 0.032466 0.064212
vn -0.037223 0.028134 -0.998911
vn -0.037223 0.028134 -0.998911
vn -0.037223 0.028134 -0.998911
vn -0.037223 0.028134 -0.998911
vn -0.997408 0.032466 0.064212
vn -0.997408 0.032466 0.064212
vn -0.997408 0.032466 0.064212
vn -0.997408 0.032466 0.064212
vn -0.037239 0.000000 -0.999306
vn -0.037239 0.000000 -0.999306
vn -0.037239 0.000000 -0.999306
vn -0.037239 0.000000 -0.999306
vn 0.997934 0.000000 0.064247
vn 0.997934 0.000000 0.064247
vn 0.997934 0.000000 0.064247
vn 0.997934 0.000000 0.064247
vn -0.037239 0.000000 0.999306
vn -0.037239 0.000000 0.999306
vn -0.037239 0.000000 0.999306
vn -0.037239 0.000000 0.999306
vn -0.997934 0.000000 0.064247
vn -0.997934 0.000000 0.064247
vn -0.997934 0.000000 0.064247
vn -0.997934 0.000000 0.064247
vn -0.037239 0.000000 0.999306
vn -0.037239 0.000000 0.999306
vn -0.037239 0.000000 0.999306
vn -0.037239 0.000000 0.999306
vn 0.997934 0.000000 0.064247
vn 0.997934 0.000000 0.064247
vn 0.997934 0.000000 0.064247
vn 0.997934 0.000000 0.064247
vn -0.037239 0.000000 -0.999306
vn -0.037239 0.000000 -0.999306
vn -0.037239 0.000000 -0.999306
vn -0.037239 0.000000 -0.999306
vn -0.997934 0.000000 0.064247
vn -0.997934 0.000000 0.064247
vn -0.997934 0.000000 0.064247
vn -0.997934 0.000000 0.064247
vn 0.000000 -1.000000 0.000000
vn 0.000000 -1.000000 0.000000
vn 0.000000 -1.000000 0.000000
vn 0.000000 -1.000000 0.000000
vn 0.037239 0.000000 -0.999306
vn 0.037239 0.000000 -0.999306
vn 0.037239 0.000000 -0.999306
vn 0.037239 0.000000 -0.999306
vn 0.037223 0.028134 -0.998911
vn 0.037223 0.028134 -0.998911
vn 0.037223 0.028134 -0.998911
vn 0.037223 0.028134 -0.998911
vn 0.037223 -0.028134 -0.998911
vn 0.037223 -0.028134 -0.998911
vn 0.037223 -0.028134 -0.998911
vn 0.037223 -0.028134 -0.998911
vn 0.037239 0.000000 -0.999306
vn 0.037239 0.000000 -0.999306
vn 0.037239 0.000000 -0.999306
vn 0.037239 0.000000 -0.999306
vn 0.000000 1.000000 -0.000000
vn 0.000000 1.000000 -0.000000
vn 0.000000 1.000000 -0.000000
vn 0.000000 1.000000 -0.000000
vn 0.037239 0.000000 0.999306
vn 0.037239 0.000000 0.999306
vn 0.037239 0.000000 0.999306
vn 0.037239 0.000000 0.999306
vn 0.037222 -0.029384 0.998875
vn 0.037222 -0.029384 0.998875
vn 0.037222 -0.029384 0.998875
vn 0.037222 -0.029384 0.998875
vn 0.037223 0.028134 0.998911
vn 0.037223 0.028134 0.998911
vn 0.037223 0.028134 0.998911
vn 0.037223 0.028134 0.998911
vn 0.037239 0.000000 0.999306
vn 0.037239 0.000000 0.999306
vn 0.037239 0.000000 0.999306
vn 0.037239 0.000000 0.999306
vn 0.000000 1.000000 0.000000
vn 0.000000 1.000000 0.000000
vn 0.000000 1.000000 0.000000
vn 0.000000 1.000000 0.000000
vn 0.000000 1.000000 0.000000
vn 0.000000 1.000000 0.000000
vn 0.000000 1.000000 0.000000
vn 0.000000 1.000000 0.000000
vn 0.997934 0.000000 -0.064247
vn 0.997934 0.000000 -0.064247
vn 0.997934 0.000000 -0.064247
vn 0.997934 0.000000 -0.064247
vn 0.997408 -0.032466 -0.064212
vn 0.997408 -0.032466 -0.064212
vn 0.997408 -0.032466 -0.064212
vn 0.997408 -0.032466 -0.064212
vn 0.997408 0.032466 -0.064212
vn 0.997408 0.032466 -0.064212
vn 0.997408 0.032466 -0.064212
vn 0.997408 0.032466 -0.064212
vn 0.997934 0.000000 -0.064247
vn 0.997934 0.000000 -0.064247
vn 0.997934 0.000000 -0.064247
vn 0.997934 0.000000 -0.064247
vn 0.000000 -1.000000 0.000000
vn 0.000000 -1.000000 0.000000
vn 0.000000 -1.000000 0.000000
vn 0.000000 -1.000000 0.000000
vn 0.000000 -1.000000 -0.000000
vn 0.000000 -1.000000 -0.000000
vn 0.000000 -1.000000 -0.000000
vn 0.000000 -1.000000 -0.000000
vn -0.997934 0.000000 -0.064247
vn -0.997934 0.000000 -0.064247
vn -0.997934 0.000000 -0.064247
vn -0.997934 0.000000 -0.064247
vn -0.997408 0.032466 -0.064212
vn -0.997408 0.032466 -0.064212
vn -0.997408 0.032466 -0.064212
vn -0.997408 0.032466 -0.064212
vn -0.997365 -0.033166 -0.064516
vn -0.997365 -0.033166 -0.064516
vn -0.997365 -0.033166 -0.064516
vn -0.997365 -0.033166 -0.064516
vn -0.997934 0.000000 -0.064247
vn -0.997934 0.000000 -0.064247
vn -0.997934 0.000000 -0.064247
vn -0.997934 0.000000 -0.064247
vn 0.001425 -0.986445 0.164086
vn 0.001425 -0.986445 0.164087
vn 0.001425 -0.986445 0.164087
vn 0.001425 -0.986445 0.164087
vn 0.000000 -1.000000 0.000000
vn 0.000000 -1.000000 0.000000
vn 0.000000 -1.000000 0.000000
vn 0.000000 -1.000000 0.000000
vn 0.000000 -1.000000 -0.000000
vn 0.000000 -1.000000 -0.000000
vn 0.000000 -1.000000 -0.000000
vn 0.000000 -1.000000 -0.000000
vn 0.000000 -1.000000 -0.000000
vn 0.000000 -1.000000 -0.000000
vn 0.000000 -1.000000 -0.000000
vn 0.000000 -1.000000 -0.000000
vn 0.000000 1.000000 0.000000
vn 0.000000 1.000000 0.000000
vn 0.000000 1.000000 0.000000
vn 0.000000 1.000000 0.000000
vn 0.000000 1.000000 0.000000
vn 0.000000 1.000000 0.000000
vn 0.000000 1.000000 0.000000
vn 0.000000 1.000000 0.000000
vn 0.000000 1.000000 -0.000000
vn 0.000000 1.000000 -0.000000
vn 0.000000 1.000000 -0.000000
vn 0.000000 1.000000 -0.000000
vn 0.000000 1.000000 0.000000
vn 0.000000 1.000000 0.000000
vn 0.000000 1.000000 0.000000
vn 0.000000 1.000000 0.000000
vn 0.000000 1.000000 0.000000
vn 0.000000 1.000000 0.000000
vn 0.000000 1.000000 0.000000
vn 0.000000 1.000000 0.000000
vn 0.000000 -1.000000 -0.000000
vn 0.000000 -1.000000 -0.000000
vn 0.000000 -1.000000 -0.000000
vn 0.000000 -1.000000 -0.000000
vn 0.012059 -0.946117 0.323599
vn 0.012059 -0.946117 0.323599
vn 0.012059 -0.946117 0.323599
vn 0.012059 -0.946117 0.323599
vn 0.000000 1.000000 0.000000
vn 0.000000 1.000000 0.000000
vn 0.000000 1.000000 0.000000
vn 0.000000 1.000000 0.000000
vn 0.000000 -1.000000 0.000000
vn 0.000000 -1.000000 0.000000
vn 0.000000 -1.000000 0.000000
vn 0.000000 -1.000000 0.000000
vn 0.000000 1.000000 -0.000000
vn 0.000000 1.000000 -0.000000
vn 0.000000 1.000000 -0.000000
vn 0.000000 1.000000 -0.000000
vn 0.000000 1.000000 -0.000000
vn 0.000000 1.000000 -0.000000
vn 0.000000 1.000000 -0.000000
vn 0.000000 1.000000 -0.000000
vn -0.150253 -0.988474 -0.018510
vn -0.150253 -0.988474 -0.018510
vn -0.150253 -0.988474 -0.018510
vn -0.150253 -0.988474 -0.018510
vn 0.000000 1.000000 -0.000000
vn 0.000000 1.000000 -0.000000
vn 0.000000 1.000000 -0.000000
vn 0.000000 1.000000 -0.000000
vn 0.000000 1.000000 -0.000000
vn 0.000000 1.000000 -0.000000
vn 0.000000 1.000000 -0.000000
vn 0.000000 1.000000 -0.000000
vn 0.000000 1.000000 0.000000
vn 0.000000 1.000000 0.000000
vn 0.000000 1.000000 0.000000
vn 0.000000 1.000000 0.000000
vn 0.000000 1.000000 0.000000
vn 0.000000 1.000000 0.000000
vn 0.000000 1.000000 0.000000
vn 0.000000 1.000000 0.000000
vn 0.000000 1.000000 0.000000
vn 0.000000 1.000000 0.000000
vn 0.000000 1.000000 0.000000
vn 0.000000 1.000000 0.000000
vn 0.000000 1.000000 0.000000
vn 0.000000 1.000000 0.000000
vn 0.000000 1.000000 0.000000
vn 0.000000 1.000000 0.000000
vn 0.000000 1.000000 0.000000
vn 0.000000 1.000000 0.000000
vn 0.000000 1.000000 0.000000
vn 0.000000 1.000000 0.000000
vn 0.000000 1.000000 0.000000
vn 0.000000 1.000000 0.000000
vn 0.000000 1.000000 0.000000
vn 0.000000 1.000000 0.000000
vn 0.000000 -1.000000 0.000000
vn 0.000000 -1.000000 0.000000
vn 0.000000 -1.000000 0.000000
vn 0.000000 -1.000000 0.000000
vn 0.000000 -1.000000 0.000000
vn 0.000000 -1.000000 0.000000
vn 0.000000 -1.000000 0.000000
vn 0.000000 -1.000000 0.000000
vn 0.000000 -1.000000 0.000000
vn 0.000000 -1.000000 0.000000
vn 0.000000 -1.000000 0.000000
vn 0.000000 -1.000000 0.000000
vn 0.000000 -1.000000 0.000000
vn 0.000000 -1.000000 0.000000
vn 0.000000 -1.000000 0.000000
vn 0.000000 -1.000000 0.000000
vn 0.000000 -1.000000 0.000000
vn 0.000000 -1.000000 0.000000
vn 0.000000 -1.000000 0.000000
vn 0.000000 -1.000000 0.000000
vn 0.000000 -1.000000 0.000000
vn 0.000000 -1.000000 0.000000
vn 0.000000 -1.000000 0.000000
vn 0.000000 -1.000000 0.000000
vn 0.000000 -1.000000 0.000000
vn 0.000000 -1.000000 0.000000
vn 0.000000 -1.000000 0.000000
vn 0.000000 -1.000000 0.000000
vn 0.000000 -1.000000 0.000000
vn 0.000000 -1.000000 0.000000
vn 0.000000 -1.000000 0.000000
vn 0.000000 -1.000000 0.000000
vn -0.863308 0.501607 -0.055580
vn -0.863308 0.501607 -0.055580
vn -0.863308 0.501607 -0.055580
vn -0.863308 0.501607 -0.055580
vn 0.033275 0.448902 0.892961
vn 0.033275 0.448902 0.892961
vn 0.033275 0.448902 0.892961
vn 0.033275 0.448902 0.892961
vn -0.033275 0.448902 0.892961
vn -0.033275 0.448902 0.892961
vn -0.033275 0.448902 0.892961
vn -0.033275 0.448902 0.892961
vn 0.863308 0.501607 -0.055580
vn 0.863308 0.501607 -0.055580
vn 0.863308 0.501607 -0.055580
vn 0.863308 0.501607 -0.055580
vn -0.033275 0.448902 -0.892961
vn -0.033275 0.448902 -0.892961
vn -0.033275 0.448902 -0.892961
vn -0.033275 0.448902 -0.892961
vn 0.863308 0.501607 0.055580
vn 0.863308 0.501607 0.055580
vn 0.863308 0.501607 0.055580
vn 0.863308 0.501607 0.055580
vn 0.033275 0.448902 -0.892961
vn 0.033275 0.448902 -0.892961
vn 0.033275 0.448902 -0.892961
vn 0.033275 0.448902 -0.892961
vn -0.863308 0.501607 0.055580
vn -0.863308 0.501607 0.055580
vn -0.863308 0.501607 0.055580
vn -0.863308 0.501607 0.055580
vn 0.033275 -0.448902 0.892961
vn 0.033275 -0.448902 0.892961
vn 0.033275 -0.448902 0.892961
vn 0.033275 -0.448902 0.892961
vn -0.863308 -0.501607 -0.055580
vn -0.863308 -0.501607 -0.055580
vn -0.863308 -0.501607 -0.055580
vn -0.863308 -0.501607 -0.055580
vn -0.033275 -0.448902 0.892961
vn -0.033275 -0.448902 0.892961
vn -0.033275 -0.448902 0.892961
vn -0.033275 -0.448902 0.892961
vn 0.863308 -0.501607 -0.055580
vn 0.863308 -0.501607 -0.055580
vn 0.863308 -0.501607 -0.055580
vn 0.863308 -0.501607 -0.055580
vn -0.863308 -0.501607 0.055580
vn -0.863308 -0.501607 0.055580
vn -0.863308 -0.501607 0.055580
vn -0.863308 -0.501607 0.055580
vn 0.033275 -0.448902 -0.892961
vn 0.033275 -0.448902 -0.892961
vn 0.033275 -0.448902 -0.892961
vn 0.033275 -0.448902 -0.892961
vn -0.033275 -0.448902 -0.892961
vn -0.033275 -0.448902 -0.892961
vn -0.033275 -0.448902 -0.892961
vn -0.033275 -0.448902 -0.892961
vn 0.863308 -0.501607 0.055580
vn 0.863308 -0.501607 0.055580
vn 0.863308 -0.501607 0.055580
vn 0.863308 -0.501607 0.055580
s off
g _polySurface1
usemtl lambert5SG
f 33/125/1 34/126/2 35/5/3 36/6/4
f 73/67/5 74/68/6 75/46/7 76/45/8
f 37/128/9 38/129/10 39/4/11 40/3/12
f 82/57/13 83/70/14 84/71/15 85/58/16
f 41/1/17 42/2/18 40/3/19 39/4/20
f 43/10/21 44/11/22 45/12/23 46/13/24
f 34/126/25 47/127/26 48/9/27 35/5/28
f 42/2/29 49/7/30 50/8/31 40/3/32
f 51/132/33 37/128/34 40/3/35 50/8/36
f 52/14/37 53/15/38 44/11/39 43/10/40
f 20/134/41 21/135/42 6/22/43 10/21/44
f 26/19/45 27/20/46 10/21/47 6/22/48
f 22/138/49 23/139/50 11/23/51 4/24/52
f 9/25/53 32/26/54 25/27/55 5/28/56
f 24/140/57 17/141/58 2/35/59 14/36/60
f 28/31/61 29/32/62 8/33/63 15/34/64
f 18/142/65 19/143/66 15/34/67 8/33/68
f 7/37/69 30/38/70 31/39/71 16/40/72
f 86/63/73 84/71/74 83/70/75 87/64/76
f 16/144/77 19/143/78 18/142/79 7/145/80
f 43/131/81 37/128/82 51/132/83 52/133/84
f 46/130/85 38/129/86 37/128/87 43/131/88
f 5/136/89 21/135/90 20/134/91 9/137/92
f 77/51/93 74/68/94 73/67/95 78/52/96
f 12/29/97 23/139/98 22/138/99 3/30/100
f 54/16/101 34/126/102 33/125/103 55/17/104
f 56/18/105 47/127/106 34/126/107 54/16/108
f 1/41/109 17/141/110 24/140/111 13/42/112
f 79/54/113 80/69/114 74/68/115 77/51/116
f 75/46/117 74/68/118 80/69/119 81/48/120
f 11/23/121 27/20/122 26/19/123 4/24/124
f 35/5/125 42/2/126 41/1/127 36/6/128
f 48/9/129 49/7/130 42/2/131 35/5/132
f 2/35/133 29/32/134 28/31/135 14/36/136
f 88/72/137 83/70/138 82/57/139 89/60/140
f 87/64/141 83/70/142 88/72/143 90/66/144
f 31/39/145 30/38/146 1/41/147 13/42/148
f 44/11/149 53/15/150 56/18/151 54/16/152
f 45/12/153 44/11/154 54/16/155 55/17/156
f 25/27/157 32/26/158 12/29/159 3/30/160
f 11/73/161 23/74/162 33/75/163 36/76/164
f 20/87/165 10/83/166 39/84/167 38/88/168
f 10/83/169 27/79/170 41/80/171 39/84/172
f 32/81/173 9/85/174 46/86/175 45/82/176
f 24/89/177 14/90/178 48/91/179 47/92/180
f 28/93/181 15/97/182 50/98/183 49/94/184
f 15/97/185 19/101/186 51/102/187 50/98/188
f 16/103/189 31/99/190 53/100/191 52/104/192
f 19/101/193 16/103/194 52/104/195 51/102/196
f 9/85/197 20/87/198 38/88/199 46/86/200
f 23/74/201 12/77/202 55/78/203 33/75/204
f 13/95/205 24/89/206 47/92/207 56/96/208
f 27/79/209 11/73/210 36/76/211 41/80/212
f 14/90/213 28/93/214 49/94/215 48/91/216
f 31/99/217 13/95/218 56/96/219 53/100/220
f 12/77/221 32/81/222 45/82/223 55/78/224
f 26/105/225 6/106/226 59/44/227 58/43/228
f 6/106/229 21/107/230 57/108/231 59/44/232
f 21/107/233 5/110/234 61/49/235 57/108/236
f 5/110/237 25/113/238 60/50/239 61/49/240
f 3/114/241 22/111/242 63/112/243 62/53/244
f 25/113/245 3/114/246 62/53/247 60/50/248
f 22/111/249 4/109/250 64/47/251 63/112/252
f 4/109/253 26/105/254 58/43/255 64/47/256
f 18/115/257 8/116/258 67/55/259 66/117/260
f 8/116/261 29/118/262 65/56/263 67/55/264
f 7/119/265 18/115/266 66/117/267 68/62/268
f 30/121/269 7/119/270 68/62/271 69/61/272
f 29/118/273 2/120/274 71/59/275 65/56/276
f 2/120/277 17/122/278 70/123/279 71/59/280
f 17/122/281 1/124/282 72/65/283 70/123/284
f 1/124/285 30/121/286 69/61/287 72/65/288
f 58/43/289 59/44/290 76/45/291 75/46/292
f 59/44/293 57/108/294 73/67/295 76/45/296
f 57/108/297 61/49/298 78/52/299 73/67/300
f 61/49/301 60/50/302 77/51/303 78/52/304
f 62/53/305 63/112/306 80/69/307 79/54/308
f 60/50/309 62/53/310 79/54/311 77/51/312
f 63/112/313 64/47/314 81/48/315 80/69/316
f 64/47/317 58/43/318 75/46/319 81/48/320
f 66/117/321 67/55/322 85/58/323 84/71/324
f 67/55/325 65/56/326 82/57/327 85/58/328
f 68/62/329 66/117/330 84/71/331 86/63/332
f 69/61/333 68/62/334 86/63/335 87/64/336
f 65/56/337 71/59/338 89/60/339 82/57/340
f 71/59/341 70/123/342 88/72/343 89/60/344
f 70/123/345 72/65/346 90/66/347 88/72/348
f 72/65/349 69/61/350 87/64/351 90/66/352
