# File produced by Open Asset Import Library (http://www.assimp.sf.net)
# (assimp v3.1.35440475)

mtllib hammer.mtl

# 106 vertex positions
v  0.626883 38.8132 -2.72403
v  -8.61473e-08 38.8132 -2.94847
v  -1.06636e-07 48.6959 -2.52657
v  0.642719 48.696 -2.33425
v  1.15832 38.8132 -2.08489
v  1.18759 48.6959 -1.78655
v  1.51343 38.8132 -1.12833
v  1.55166 48.696 -0.966879
v  1.63812 38.8132 -6.07967e-06
v  1.67951 48.6959 -7.7486e-06
v  1.51343 38.8132 1.12832
v  1.55166 48.6959 0.966867
v  1.15832 38.8132 2.08487
v  1.18759 48.696 1.78654
v  0.626883 38.8132 2.72401
v  0.64272 48.6959 2.33423
v  1.61119e-07 38.8132 2.94845
v  1.46683e-07 48.6959 2.52655
v  -0.626881 38.8132 2.72401
v  -0.642719 48.6959 2.33423
v  -1.15833 38.8132 2.08487
v  -1.18759 48.696 1.78654
v  -1.51343 38.8132 1.12832
v  -1.55166 48.6959 0.966865
v  -1.63812 38.8132 -6.25849e-06
v  -1.67951 48.6959 -7.86781e-06
v  -1.51343 38.8132 -1.12833
v  -1.55166 48.696 -0.966879
v  -1.15833 38.8132 -2.08489
v  -1.18759 48.6959 -1.78655
v  -0.626881 38.8132 -2.72403
v  -0.642719 48.696 -2.33425
v  2.02463 0 2.08616e-07
v  1.87051 1.90735e-06 1.09217
v  -1.62981e-08 0 1.19209e-07
v  -1.42027e-07 -1.90735e-06 -2.85397
v  -0.774791 -1.33514e-05 -2.63673
v  -0.767263 11.8781 -2.53483
v  -1.31782e-07 11.8781 -2.74368
v  -1.43163 -1.90735e-06 -2.01807
v  -1.41772 11.8781 -1.94008
v  -1.87051 -1.90735e-06 -1.09217
v  -1.85234 11.8781 -1.04997
v  -2.02463 0 5.96046e-08
v  -2.00496 11.8781 -1.87755e-06
v  -1.87051 1.90735e-06 1.09217
v  -1.85234 11.8781 1.04996
v  -1.43163 1.90735e-06 2.01807
v  -1.41772 11.8781 1.94008
v  -0.774791 1.52588e-05 2.63673
v  -0.767265 11.8781 2.53483
v  1.63913e-07 1.90735e-06 2.85397
v  1.70898e-07 11.8781 2.74368
v  0.774791 1.52588e-05 2.63673
v  0.767266 11.8781 2.53483
v  1.43163 1.90735e-06 2.01807
v  1.41772 11.8781 1.94007
v  1.85234 11.8781 1.04996
v  2.00496 11.8781 -1.72853e-06
v  1.87051 -1.90735e-06 -1.09217
v  1.85234 11.8781 -1.04996
v  1.43163 -1.90735e-06 -2.01807
v  1.41772 11.8781 -1.94007
v  0.774791 -1.52588e-05 -2.63673
v  0.767266 11.8781 -2.53483
v  -0.826595 23.1785 -2.82858
v  -1.37836e-07 23.1785 -3.06163
v  -1.52735 23.1785 -2.1649
v  -1.99558 23.1785 -1.17164
v  -2.16 23.1785 -3.72529e-06
v  -1.99558 23.1785 1.17163
v  -1.52735 23.1785 2.16488
v  -0.826595 23.1785 2.82857
v  1.88593e-07 23.1785 3.06162
v  0.826595 23.1785 2.82857
v  1.52735 23.1785 2.16488
v  1.99558 23.1785 1.17163
v  2.15999 23.1785 -3.54648e-06
v  1.99558 23.1785 -1.17164
v  1.52735 23.1785 -2.1649
v  0.826595 23.1785 -2.82858
v  8.89413e-08 48.6959 -7.86781e-06
v  2.13366 47.55 -8.98969
v  -2.13403 47.55 -8.98969
v  -2.1359 48.2573 -8.26627
v  2.13366 48.2573 -8.2663
v  -2.81644 40.8043 -8.26626
v  -2.84356 47.55 -8.2663
v  -2.10713 40.8043 -8.98968
v  -2.14041 48.2573 7.67256
v  -2.84541 47.55 7.67256
v  2.12261 40.053 -8.26627
v  -2.13662 40.053 -8.26627
v  2.15081 40.8043 -8.98968
v  -2.8214 40.8043 7.67256
v  -2.14706 40.053 7.67256
v  2.13366 48.2573 7.67256
v  -2.14041 47.55 8.37393
v  2.13366 47.55 8.37393
v  -2.12518 40.8043 8.37393
v  2.15302 40.8043 8.37393
v  2.13368 40.053 7.67256
v  2.83867 47.55 7.67256
v  2.83867 47.55 -8.2663
v  2.85767 40.8043 -8.26626
v  2.85699 40.8043 7.67256

# 167 UV coordinates
vt 0.76135 0.773887 0
vt 0.773103 0.773887 0
vt 0.773103 0.961314 0
vt 0.759142 0.961314 0
vt 0.746754 0.773887 0
vt 0.74262 0.961314 0
vt 0.724773 0.773887 0
vt 0.72044 0.961314 0
vt 0.691486 0.773887 0
vt 0.691486 0.961314 0
vt 0.658198 0.773887 0
vt 0.662532 0.961314 0
vt 0.636218 0.773887 0
vt 0.640351 0.961314 0
vt 0.621621 0.773887 0
vt 0.623829 0.961314 0
vt 0.609868 0.773887 0
vt 0.609868 0.961314 0
vt 0.598116 0.773887 0
vt 0.595908 0.961314 0
vt 0.583519 0.773887 0
vt 0.579386 0.961314 0
vt 0.561538 0.773887 0
vt 0.557205 0.961314 0
vt 0.528251 0.773887 0
vt 0.528251 0.961314 0
vt 0.494964 0.773887 0
vt 0.499297 0.961314 0
vt 0.472983 0.773887 0
vt 0.477116 0.961314 0
vt 0.458386 0.773887 0
vt 0.460594 0.961314 0
vt 0.446634 0.773887 0
vt 0.446634 0.961314 0
vt 0.937714 0.596892 0
vt 0.950694 0.628763 0
vt 0.873525 0.63665 0
vt 0.446634 0.0377897 0
vt 0.461483 0.0377897 0
vt 0.461906 0.263059 0
vt 0.446634 0.263059 0
vt 0.478693 0.0377897 0
vt 0.479424 0.263059 0
vt 0.500791 0.0377897 0
vt 0.501457 0.263059 0
vt 0.528251 0.0377897 0
vt 0.528251 0.263059 0
vt 0.555711 0.0377897 0
vt 0.555045 0.263059 0
vt 0.577809 0.0377897 0
vt 0.577079 0.263059 0
vt 0.595019 0.0377897 0
vt 0.594596 0.263059 0
vt 0.609868 0.0377897 0
vt 0.609868 0.263059 0
vt 0.624718 0.0377897 0
vt 0.62514 0.263059 0
vt 0.641928 0.0377897 0
vt 0.642658 0.263059 0
vt 0.664026 0.0377897 0
vt 0.664692 0.263059 0
vt 0.691486 0.0377897 0
vt 0.691486 0.263059 0
vt 0.718946 0.0377897 0
vt 0.71828 0.263059 0
vt 0.741044 0.0377897 0
vt 0.740313 0.263059 0
vt 0.758253 0.0377897 0
vt 0.757831 0.263059 0
vt 0.773103 0.0377897 0
vt 0.773103 0.263059 0
vt 0.461406 0.477373 0
vt 0.446634 0.477373 0
vt 0.478558 0.477373 0
vt 0.500666 0.477373 0
vt 0.528251 0.477373 0
vt 0.555836 0.477373 0
vt 0.577944 0.477373 0
vt 0.595096 0.477373 0
vt 0.609868 0.477373 0
vt 0.624641 0.477373 0
vt 0.641793 0.477373 0
vt 0.663901 0.477373 0
vt 0.691486 0.477373 0
vt 0.719071 0.477373 0
vt 0.741179 0.477373 0
vt 0.75833 0.477373 0
vt 0.773103 0.477373 0
vt 0.892095 0.721502 0
vt 0.86115 0.718061 0
vt 0.795125 0.611466 0
vt 0.805829 0.582228 0
vt 0.885901 0.55524 0
vt 0.914961 0.571074 0
vt 0.941222 0.691072 0
vt 0.920212 0.712025 0
vt 0.826839 0.561276 0
vt 0.854956 0.551799 0
vt 0.809337 0.676408 0
vt 0.796357 0.644537 0
vt 0.951926 0.661835 0
vt 0.832089 0.702226 0
vt 0.823438 0.885937 0
vt 0.819813 0.86082 0
vt 0.87207 0.861556 0
vt 0.824143 0.835815 0
vt 0.83577 0.814729 0
vt 0.852924 0.800771 0
vt 0.872992 0.796068 0
vt 0.89292 0.801334 0
vt 0.909674 0.815769 0
vt 0.919997 0.887296 0
vt 0.90837 0.908383 0
vt 0.920703 0.837174 0
vt 0.924328 0.862291 0
vt 0.851221 0.921777 0
vt 0.834467 0.907343 0
vt 0.891217 0.92234 0
vt 0.871148 0.927044 0
vt 0.401721 0.961731 0
vt 0.252323 0.961709 0
vt 0.252425 0.941524 0
vt 0.401555 0.941507 0
vt 0.802765 0.0606939 0
vt 0.931376 0.0621805 0
vt 0.931572 0.0452544 0
vt 0.802961 0.0437679 0
vt 0.252321 0.497489 0
vt 0.227448 0.941504 0
vt 0.227434 0.497476 0
vt 0.172969 0.138263 0
vt 0.056823 0.140773 0
vt 0.057235 0.12423 0
vt 0.173412 0.121727 0
vt 0.0458509 0.503282 0
vt 0.038206 0.141137 0
vt 0.0643205 0.502848 0
vt 0.4016 0.497473 0
vt 0.252151 0.47788 0
vt 0.401772 0.477901 0
vt 0.798265 0.45003 0
vt 0.926876 0.451517 0
vt 0.927065 0.435107 0
vt 0.798455 0.43362 0
vt 0.181961 0.516358 0
vt 0.0652255 0.518864 0
vt 0.18106 0.500349 0
vt 0.426488 0.497495 0
vt 0.426438 0.941523 0
vt 0.426287 0.463053 0
vt 0.270469 0.463053 0
vt 0.270469 0.445129 0
vt 0.426287 0.445129 0
vt 0.193088 0.137795 0
vt 0.200857 0.499961 0
vt 0.270469 0.0328295 0
vt 0.426287 0.0328295 0
vt 0.426287 0.0502079 0
vt 0.270469 0.0502079 0
vt 0.196566 0.72846 0
vt 0.083543 0.728459 0
vt 0.0828288 0.842197 0
vt 0.196111 0.842197 0
vt 0.0832329 0.577719 0
vt 0.19668 0.577719 0
vt 0.196167 0.691571 0
vt 0.0828288 0.691571 0

# 106 vertex normals
vn 0.525907 0.0220292 -0.850257
vn 0 0.0236228 -0.999721
vn 0 0.12844 -0.991717
vn 0.577498 0.112538 -0.808599
vn 0.833375 0.0185008 -0.552398
vn 0.861233 0.0898012 -0.500213
vn 0.964677 0.0154049 -0.262983
vn 0.969311 0.076854 -0.233516
vn 0.999899 0.0142436 -2.32057e-09
vn 0.997337 0.0729298 -1.18818e-08
vn 0.964677 0.015405 0.262983
vn 0.969311 0.0768541 0.233517
vn 0.833375 0.0185009 0.552398
vn 0.861233 0.0898014 0.500214
vn 0.525907 0.0220294 0.850257
vn 0.577498 0.112538 0.808599
vn 0 0.0236232 0.999721
vn 0 0.128441 0.991717
vn -0.525907 0.0220294 0.850257
vn -0.577498 0.112538 0.808599
vn -0.833375 0.0185009 0.552398
vn -0.861233 0.0898014 0.500214
vn -0.964677 0.015405 0.262983
vn -0.969311 0.0768541 0.233517
vn -0.999899 0.0142436 -2.32057e-09
vn -0.997337 0.0729298 -1.18818e-08
vn -0.964677 0.0154049 -0.262983
vn -0.969311 0.076854 -0.233516
vn -0.833375 0.0185008 -0.552398
vn -0.861233 0.0898012 -0.500213
vn -0.525907 0.0220292 -0.850257
vn -0.577498 0.112538 -0.808599
vn 0.997286 -0.0736254 1.19951e-08
vn 0.954137 -0.074031 0.290071
vn 0 -1 1.62921e-07
vn 0 -0.0798803 -0.996804
vn -0.488778 -0.0782152 -0.868895
vn -0.500367 -0.00860927 -0.86577
vn 0 -0.00931777 -0.999957
vn -0.803442 -0.0755337 -0.590572
vn -0.812926 -0.00731605 -0.582322
vn -0.954137 -0.0740311 -0.290071
vn -0.958696 -0.00638524 -0.284362
vn -0.997286 -0.0736254 1.19951e-08
vn -0.999982 -0.00606668 9.88387e-10
vn -0.954137 -0.074031 0.290071
vn -0.958696 -0.00638514 0.284362
vn -0.803442 -0.0755335 0.590572
vn -0.812926 -0.00731585 0.582322
vn -0.488778 -0.0782148 0.868895
vn -0.500367 -0.00860898 0.86577
vn 0 -0.0798799 0.996804
vn 0 -0.00931745 0.999957
vn 0.488778 -0.0782148 0.868895
vn 0.500367 -0.00860898 0.86577
vn 0.803442 -0.0755335 0.590572
vn 0.812926 -0.00731585 0.582322
vn 0.958696 -0.00638514 0.284362
vn 0.999982 -0.00606668 9.88387e-10
vn 0.954137 -0.0740311 -0.290071
vn 0.958696 -0.00638524 -0.284362
vn 0.803442 -0.0755337 -0.590572
vn 0.812926 -0.00731605 -0.582322
vn 0.488778 -0.0782152 -0.868895
vn 0.500367 -0.00860927 -0.86577
vn -0.521361 -0.00519165 -0.85332
vn 0 -0.00891301 -0.99996
vn -0.826794 0.0015824 -0.562503
vn -0.962276 0.00655826 -0.271997
vn -0.999966 0.00829559 -1.35152e-09
vn -0.962276 0.00655835 0.271997
vn -0.826794 0.00158258 0.562503
vn -0.521361 -0.00519136 0.85332
vn 0 -0.00891269 0.99996
vn 0.521361 -0.00519136 0.85332
vn 0.826794 0.00158258 0.562503
vn 0.962276 0.00655835 0.271997
vn 0.999966 0.00829559 -1.35152e-09
vn 0.962276 0.00655826 -0.271997
vn 0.826794 0.0015824 -0.562503
vn 0.521361 -0.00519165 -0.85332
vn 0 1 -1.62921e-07
vn 0.131521 0.0861451 -0.987563
vn -0.140875 0.0882216 -0.986089
vn -0.610454 0.772938 -0.172956
vn 0.610858 0.772579 -0.173128
vn -0.995081 -0.0904967 -0.0402983
vn -0.995358 0.0881113 -0.0387277
vn -0.128482 -0.0869974 -0.987889
vn -0.612541 0.771102 0.173767
vn -0.995379 0.0881969 0.037972
vn 0.145424 -0.988467 -0.0422604
vn -0.147402 -0.98824 -0.0406697
vn 0.138941 -0.0851296 -0.986635
vn -0.995122 -0.0904962 0.0392872
vn -0.147635 -0.988193 0.0409717
vn 0.613037 0.770641 0.174065
vn -0.134185 0.0849342 0.98731
vn 0.126908 0.0834332 0.988399
vn -0.126961 -0.0848064 0.988276
vn 0.134854 -0.0834737 0.987343
vn 0.145809 -0.988415 0.0421312
vn 0.994803 0.0937425 0.039733
vn 0.994809 0.0936691 -0.0397587
vn 0.99507 -0.0914306 -0.0384349
vn 0.995067 -0.091484 0.0383735

# Mesh 'Cylinder_Cylinder' with 204 faces
g Cylinder_Cylinder
usemtl lambert1
f  1/1/1 2/2/2 3/3/3
f  3/3/3 4/4/4 1/1/1
f  5/5/5 1/1/1 4/4/4
f  4/4/4 6/6/6 5/5/5
f  7/7/7 5/5/5 6/6/6
f  6/6/6 8/8/8 7/7/7
f  9/9/9 7/7/7 8/8/8
f  8/8/8 10/10/10 9/9/9
f  11/11/11 9/9/9 10/10/10
f  10/10/10 12/12/12 11/11/11
f  13/13/13 11/11/11 12/12/12
f  12/12/12 14/14/14 13/13/13
f  15/15/15 13/13/13 14/14/14
f  14/14/14 16/16/16 15/15/15
f  17/17/17 15/15/15 16/16/16
f  16/16/16 18/18/18 17/17/17
f  19/19/19 17/17/17 18/18/18
f  18/18/18 20/20/20 19/19/19
f  21/21/21 19/19/19 20/20/20
f  20/20/20 22/22/22 21/21/21
f  23/23/23 21/21/21 22/22/22
f  22/22/22 24/24/24 23/23/23
f  25/25/25 23/23/23 24/24/24
f  24/24/24 26/26/26 25/25/25
f  27/27/27 25/25/25 26/26/26
f  26/26/26 28/28/28 27/27/27
f  29/29/29 27/27/27 28/28/28
f  28/28/28 30/30/30 29/29/29
f  31/31/31 29/29/29 30/30/30
f  30/30/30 32/32/32 31/31/31
f  2/33/2 31/31/31 32/32/32
f  32/32/32 3/34/3 2/33/2
f  33/35/33 34/36/34 35/37/35
f  36/38/36 37/39/37 38/40/38
f  38/40/38 39/41/39 36/38/36
f  37/39/37 40/42/40 41/43/41
f  41/43/41 38/40/38 37/39/37
f  40/42/40 42/44/42 43/45/43
f  43/45/43 41/43/41 40/42/40
f  42/44/42 44/46/44 45/47/45
f  45/47/45 43/45/43 42/44/42
f  44/46/44 46/48/46 47/49/47
f  47/49/47 45/47/45 44/46/44
f  46/48/46 48/50/48 49/51/49
f  49/51/49 47/49/47 46/48/46
f  48/50/48 50/52/50 51/53/51
f  51/53/51 49/51/49 48/50/48
f  50/52/50 52/54/52 53/55/53
f  53/55/53 51/53/51 50/52/50
f  52/54/52 54/56/54 55/57/55
f  55/57/55 53/55/53 52/54/52
f  54/56/54 56/58/56 57/59/57
f  57/59/57 55/57/55 54/56/54
f  56/58/56 34/60/34 58/61/58
f  58/61/58 57/59/57 56/58/56
f  34/60/34 33/62/33 59/63/59
f  59/63/59 58/61/58 34/60/34
f  33/62/33 60/64/60 61/65/61
f  61/65/61 59/63/59 33/62/33
f  60/64/60 62/66/62 63/67/63
f  63/67/63 61/65/61 60/64/60
f  62/66/62 64/68/64 65/69/65
f  65/69/65 63/67/63 62/66/62
f  64/68/64 36/70/36 39/71/39
f  39/71/39 65/69/65 64/68/64
f  39/41/39 38/40/38 66/72/66
f  66/72/66 67/73/67 39/41/39
f  38/40/38 41/43/41 68/74/68
f  68/74/68 66/72/66 38/40/38
f  41/43/41 43/45/43 69/75/69
f  69/75/69 68/74/68 41/43/41
f  43/45/43 45/47/45 70/76/70
f  70/76/70 69/75/69 43/45/43
f  45/47/45 47/49/47 71/77/71
f  71/77/71 70/76/70 45/47/45
f  47/49/47 49/51/49 72/78/72
f  72/78/72 71/77/71 47/49/47
f  49/51/49 51/53/51 73/79/73
f  73/79/73 72/78/72 49/51/49
f  51/53/51 53/55/53 74/80/74
f  74/80/74 73/79/73 51/53/51
f  53/55/53 55/57/55 75/81/75
f  75/81/75 74/80/74 53/55/53
f  55/57/55 57/59/57 76/82/76
f  76/82/76 75/81/75 55/57/55
f  57/59/57 58/61/58 77/83/77
f  77/83/77 76/82/76 57/59/57
f  58/61/58 59/63/59 78/84/78
f  78/84/78 77/83/77 58/61/58
f  59/63/59 61/65/61 79/85/79
f  79/85/79 78/84/78 59/63/59
f  61/65/61 63/67/63 80/86/80
f  80/86/80 79/85/79 61/65/61
f  63/67/63 65/69/65 81/87/81
f  81/87/81 80/86/80 63/67/63
f  65/69/65 39/71/39 67/88/67
f  67/88/67 81/87/81 65/69/65
f  67/73/67 66/72/66 31/31/31
f  31/31/31 2/33/2 67/73/67
f  66/72/66 68/74/68 29/29/29
f  29/29/29 31/31/31 66/72/66
f  68/74/68 69/75/69 27/27/27
f  27/27/27 29/29/29 68/74/68
f  69/75/69 70/76/70 25/25/25
f  25/25/25 27/27/27 69/75/69
f  70/76/70 71/77/71 23/23/23
f  23/23/23 25/25/25 70/76/70
f  71/77/71 72/78/72 21/21/21
f  21/21/21 23/23/23 71/77/71
f  72/78/72 73/79/73 19/19/19
f  19/19/19 21/21/21 72/78/72
f  73/79/73 74/80/74 17/17/17
f  17/17/17 19/19/19 73/79/73
f  74/80/74 75/81/75 15/15/15
f  15/15/15 17/17/17 74/80/74
f  75/81/75 76/82/76 13/13/13
f  13/13/13 15/15/15 75/81/75
f  76/82/76 77/83/77 11/11/11
f  11/11/11 13/13/13 76/82/76
f  77/83/77 78/84/78 9/9/9
f  9/9/9 11/11/11 77/83/77
f  78/84/78 79/85/79 7/7/7
f  7/7/7 9/9/9 78/84/78
f  79/85/79 80/86/80 5/5/5
f  5/5/5 7/7/7 79/85/79
f  80/86/80 81/87/81 1/1/1
f  1/1/1 5/5/5 80/86/80
f  81/87/81 67/88/67 2/2/2
f  2/2/2 1/1/1 81/87/81
f  50/89/50 48/90/48 35/37/35
f  40/91/40 37/92/37 35/37/35
f  62/93/62 60/94/60 35/37/35
f  54/95/54 52/96/52 35/37/35
f  36/97/36 64/98/64 35/37/35
f  44/99/44 42/100/42 35/37/35
f  34/36/34 56/101/56 35/37/35
f  48/90/48 46/102/46 35/37/35
f  37/92/37 36/97/36 35/37/35
f  60/94/60 33/35/33 35/37/35
f  52/96/52 50/89/50 35/37/35
f  42/100/42 40/91/40 35/37/35
f  64/98/64 62/93/62 35/37/35
f  56/101/56 54/95/54 35/37/35
f  46/102/46 44/99/44 35/37/35
f  28/103/28 26/104/26 82/105/82
f  26/104/26 24/106/24 82/105/82
f  22/107/22 20/108/20 82/105/82
f  18/109/18 16/110/16 82/105/82
f  16/110/16 14/111/14 82/105/82
f  8/112/8 6/113/6 82/105/82
f  12/114/12 10/115/10 82/105/82
f  32/116/32 30/117/30 82/105/82
f  14/111/14 12/114/12 82/105/82
f  4/118/4 3/119/3 82/105/82
f  24/106/24 22/107/22 82/105/82
f  3/119/3 32/116/32 82/105/82
f  10/115/10 8/112/8 82/105/82
f  20/108/20 18/109/18 82/105/82
f  30/117/30 28/103/28 82/105/82
f  6/113/6 4/118/4 82/105/82
f  83/120/83 84/121/84 85/122/85
f  85/122/85 86/123/86 83/120/83
f  87/124/87 88/125/88 84/126/84
f  84/126/84 89/127/89 87/124/87
f  90/128/90 85/122/85 88/129/88
f  88/129/88 91/130/91 90/128/90
f  92/131/92 93/132/93 89/133/89
f  89/133/89 94/134/94 92/131/92
f  95/135/95 87/136/87 93/132/93
f  93/132/93 96/137/96 95/135/95
f  97/138/97 90/128/90 98/139/98
f  98/139/98 99/140/99 97/138/97
f  100/141/100 98/142/98 91/143/91
f  91/143/91 95/144/95 100/141/100
f  101/145/101 100/146/100 96/137/96
f  96/137/96 102/147/102 101/145/101
f  103/148/103 104/149/104 86/123/86
f  86/123/86 97/138/97 103/148/103
f  94/150/94 83/151/83 104/152/104
f  104/152/104 105/153/105 94/150/94
f  102/147/102 92/131/92 105/154/105
f  105/154/105 106/155/106 102/147/102
f  99/156/99 101/157/101 106/158/106
f  106/158/106 103/159/103 99/156/99
f  94/160/94 89/161/89 84/162/84
f  84/162/84 83/163/83 94/160/94
f  100/164/100 101/165/101 99/166/99
f  99/166/99 98/167/98 100/164/100
f  87/124/87 95/144/95 91/143/91
f  91/143/91 88/125/88 87/124/87
f  106/158/106 105/153/105 104/152/104
f  104/152/104 103/159/103 106/158/106
f  93/132/93 92/131/92 102/147/102
f  102/147/102 96/137/96 93/132/93
f  84/121/84 88/129/88 85/122/85
f  93/132/93 87/136/87 89/133/89
f  90/128/90 91/130/91 98/139/98
f  100/146/100 95/135/95 96/137/96
f  86/123/86 104/149/104 83/120/83
f  94/134/94 105/154/105 92/131/92
f  102/147/102 106/155/106 101/145/101
f  99/140/99 103/148/103 97/138/97
f  97/138/97 86/123/86 85/122/85
f  85/122/85 90/128/90 97/138/97

